HIERARCHY
ROOT newVegas:Hips
{
	OFFSET 0.000000 96.479958 0.000000
	CHANNELS 6 Xposition Yposition Zposition Xrotation Yrotation Zrotation
	JOINT newVegas:Pelvis
	{
		OFFSET 0.000000 0.000000 0.000000
		CHANNELS 3 Xrotation Yrotation Zrotation
		JOINT newVegas:LeftUpLeg
		{
			OFFSET 18.735201 -5.666702 -4.541200
			CHANNELS 3 Xrotation Yrotation Zrotation
			JOINT newVegas:LeftLeg
			{
				OFFSET -0.021200 -31.938179 0.493100
				CHANNELS 3 Xrotation Yrotation Zrotation
				JOINT newVegas:LeftFoot
				{
					OFFSET 0.021200 -31.938179 -4.336299
					CHANNELS 3 Xrotation Yrotation Zrotation
					JOINT newVegas:LeftToeBase
					{
						OFFSET 0.943001 -26.722000 15.023500
						CHANNELS 3 Xrotation Yrotation Zrotation
						End Site
						{
							OFFSET 0.000000 30.670183 0.000000
						}
					}
				}
				JOINT newVegas:Left_PantLeg
				{
					OFFSET 0.663870 -9.044666 -1.108900
					CHANNELS 3 Xrotation Yrotation Zrotation
					End Site
					{
						OFFSET 1.415995 20.635357 0.000000
					}
				}
			}
		}
		JOINT newVegas:RightUpLeg
		{
			OFFSET -18.735201 -5.666702 -4.541200
			CHANNELS 3 Xrotation Yrotation Zrotation
			JOINT newVegas:RightLeg
			{
				OFFSET 0.018946 -31.938133 0.493100
				CHANNELS 3 Xrotation Yrotation Zrotation
				JOINT newVegas:RightFoot
				{
					OFFSET -0.018946 -31.938126 -4.336299
					CHANNELS 3 Xrotation Yrotation Zrotation
					JOINT newVegas:RightToeBase
					{
						OFFSET -0.943001 -26.722004 15.023500
						CHANNELS 3 Xrotation Yrotation Zrotation
						End Site
						{
							OFFSET 0.000000 30.670187 0.000000
						}
					}
				}
				JOINT newVegas:Right_PantLeg
				{
					OFFSET -0.661674 -9.044716 -1.108900
					CHANNELS 3 Xrotation Yrotation Zrotation
					End Site
					{
						OFFSET -1.415958 20.635269 0.000000
					}
				}
			}
		}
	}
	JOINT newVegas:Spine
	{
		OFFSET 0.000000 10.199997 -0.299500
		CHANNELS 3 Xrotation Yrotation Zrotation
		JOINT newVegas:Spine1
		{
			OFFSET 0.000000 11.900002 -1.516600
			CHANNELS 3 Xrotation Yrotation Zrotation
			JOINT newVegas:Spine2
			{
				OFFSET 0.000000 13.600006 -2.842500
				CHANNELS 3 Xrotation Yrotation Zrotation
				JOINT newVegas:Neck
				{
					OFFSET 0.000000 9.624100 -2.890100
					CHANNELS 3 Xrotation Yrotation Zrotation
					JOINT newVegas:Head
					{
						OFFSET 0.000000 14.068802 -1.351900
						CHANNELS 3 Xrotation Yrotation Zrotation
						JOINT newVegas:Hair_Back
						{
							OFFSET 0.000000 3.231903 -17.524799
							CHANNELS 3 Xrotation Yrotation Zrotation
							End Site
							{
								OFFSET 0.000000 19.849884 0.000000
							}
						}
						JOINT newVegas:Hair_Front
						{
							OFFSET 0.000000 31.260406 4.573800
							CHANNELS 3 Xrotation Yrotation Zrotation
							JOINT newVegas:Hair_Front1
							{
								OFFSET 0.000000 2.284103 11.993300
								CHANNELS 3 Xrotation Yrotation Zrotation
								JOINT newVegas:Hair_Front2
								{
									OFFSET 0.000000 2.284103 11.993300
									CHANNELS 3 Xrotation Yrotation Zrotation
									End Site
									{
										OFFSET 0.000000 12.208862 0.000000
									}
								}
							}
						}
						JOINT newVegas:Jowel
						{
							OFFSET 0.000000 -7.458206 6.864100
							CHANNELS 3 Xrotation Yrotation Zrotation
							End Site
							{
								OFFSET 0.000000 19.849884 0.000000
							}
						}
					}
				}
				JOINT newVegas:LeftShoulder
				{
					OFFSET 15.263000 10.923401 -0.547700
					CHANNELS 3 Xrotation Yrotation Zrotation
					JOINT newVegas:LeftArm
					{
						OFFSET 25.438599 -2.830597 -13.032500
						CHANNELS 3 Xrotation Yrotation Zrotation
						JOINT newVegas:LeftForeArm
						{
							OFFSET 29.960503 0.000000 0.000000
							CHANNELS 3 Xrotation Yrotation Zrotation
							JOINT newVegas:LeftHand
							{
								OFFSET 27.849251 0.000000 0.000000
								CHANNELS 3 Xrotation Yrotation Zrotation
								JOINT newVegas:LeftHandThumb1
								{
									OFFSET 4.487587 -3.305161 6.305391
									CHANNELS 3 Xrotation Yrotation Zrotation
									JOINT newVegas:LeftHandThumb2
									{
										OFFSET 5.480453 -3.164139 3.164143
										CHANNELS 3 Xrotation Yrotation Zrotation
										JOINT newVegas:LeftHandThumb3
										{
											OFFSET 5.159721 -2.978973 2.978967
											CHANNELS 3 Xrotation Yrotation Zrotation
											End Site
											{
												OFFSET 2.494507 5.926697 1.738678
											}
										}
									}
								}
								JOINT newVegas:LeftHandIndex1
								{
									OFFSET 18.578728 -0.527832 5.208049
									CHANNELS 3 Xrotation Yrotation Zrotation
									JOINT newVegas:LeftHandIndex2
									{
										OFFSET 3.192009 0.000000 0.000000
										CHANNELS 3 Xrotation Yrotation Zrotation
										JOINT newVegas:LeftHandIndex3
										{
											OFFSET 3.835129 0.000000 0.000000
											CHANNELS 3 Xrotation Yrotation Zrotation
											End Site
											{
												OFFSET -0.034599 3.816971 0.371180
											}
										}
									}
								}
								JOINT newVegas:LeftHandMiddle1
								{
									OFFSET 18.476105 0.000000 0.000000
									CHANNELS 3 Xrotation Yrotation Zrotation
									JOINT newVegas:LeftHandMiddle2
									{
										OFFSET 3.324875 0.000000 0.000000
										CHANNELS 3 Xrotation Yrotation Zrotation
										JOINT newVegas:LeftHandMiddle3
										{
											OFFSET 4.596550 0.000000 0.000000
											CHANNELS 3 Xrotation Yrotation Zrotation
											End Site
											{
												OFFSET 0.057701 4.578827 0.399218
											}
										}
									}
								}
								JOINT newVegas:LeftHandRing1
								{
									OFFSET 17.732719 0.121887 -4.201567
									CHANNELS 3 Xrotation Yrotation Zrotation
									JOINT newVegas:LeftHandRing2
									{
										OFFSET 2.733170 0.000000 0.000000
										CHANNELS 3 Xrotation Yrotation Zrotation
										JOINT newVegas:LeftHandRing3
										{
											OFFSET 3.178268 0.000000 0.000000
											CHANNELS 3 Xrotation Yrotation Zrotation
											End Site
											{
												OFFSET 0.119102 3.170624 0.185394
											}
										}
									}
								}
								JOINT newVegas:LeftHandPinky1
								{
									OFFSET 15.989624 -0.606689 -7.535461
									CHANNELS 3 Xrotation Yrotation Zrotation
									JOINT newVegas:LeftHandPinky2
									{
										OFFSET 2.538986 0.000000 0.000000
										CHANNELS 3 Xrotation Yrotation Zrotation
										JOINT newVegas:LeftHandPinky3
										{
											OFFSET 2.593102 0.000000 0.000000
											CHANNELS 3 Xrotation Yrotation Zrotation
											End Site
											{
												OFFSET -0.150902 2.584198 0.152708
											}
										}
									}
								}
							}
							JOINT newVegas:Left_Sleeve
							{
								OFFSET 0.267448 -0.649796 0.577675
								CHANNELS 3 Xrotation Yrotation Zrotation
								End Site
								{
									OFFSET 0.000000 15.991241 0.000000
								}
							}
							JOINT newVegas:Left_CapeC
							{
								OFFSET 15.715958 -8.608795 -6.935905
								CHANNELS 3 Xrotation Yrotation Zrotation
								JOINT newVegas:Left_CapeC1
								{
									OFFSET 0.000000 -8.688499 0.000000
									CHANNELS 3 Xrotation Yrotation Zrotation
									End Site
									{
										OFFSET 0.000000 8.688499 0.000000
									}
								}
							}
						}
						JOINT newVegas:Left_CapeB
						{
							OFFSET 26.118385 -8.608795 -7.079235
							CHANNELS 3 Xrotation Yrotation Zrotation
							JOINT newVegas:Left_CapeB1
							{
								OFFSET 0.000000 -8.688499 0.000000
								CHANNELS 3 Xrotation Yrotation Zrotation
								End Site
								{
									OFFSET 0.000000 8.688499 0.000000
								}
							}
						}
						JOINT newVegas:Left_CapeA
						{
							OFFSET 5.115639 -8.608795 -10.395809
							CHANNELS 3 Xrotation Yrotation Zrotation
							JOINT newVegas:Left_CapeA1
							{
								OFFSET 0.000000 -8.688499 0.000000
								CHANNELS 3 Xrotation Yrotation Zrotation
								End Site
								{
									OFFSET 0.000000 8.688499 0.000000
								}
							}
						}
					}
				}
				JOINT newVegas:RightShoulder
				{
					OFFSET -15.263000 10.923401 -0.547700
					CHANNELS 3 Xrotation Yrotation Zrotation
					JOINT newVegas:RightArm
					{
						OFFSET -25.438599 -2.830597 -13.032500
						CHANNELS 3 Xrotation Yrotation Zrotation
						JOINT newVegas:RightForeArm
						{
							OFFSET -29.960503 0.000000 0.000000
							CHANNELS 3 Xrotation Yrotation Zrotation
							JOINT newVegas:RightHand
							{
								OFFSET -27.849251 0.000000 0.000000
								CHANNELS 3 Xrotation Yrotation Zrotation
								JOINT newVegas:RightHandThumb1
								{
									OFFSET -4.487587 -3.305161 6.305391
									CHANNELS 3 Xrotation Yrotation Zrotation
									JOINT newVegas:RightHandThumb2
									{
										OFFSET -5.480453 -3.164139 3.164143
										CHANNELS 3 Xrotation Yrotation Zrotation
										JOINT newVegas:RightHandThumb3
										{
											OFFSET -5.159721 -2.978973 2.978967
											CHANNELS 3 Xrotation Yrotation Zrotation
											End Site
											{
												OFFSET -2.494507 5.926697 1.738678
											}
										}
									}
								}
								JOINT newVegas:RightHandIndex1
								{
									OFFSET -18.578728 -0.527832 5.208049
									CHANNELS 3 Xrotation Yrotation Zrotation
									JOINT newVegas:RightHandIndex2
									{
										OFFSET -3.192009 0.000000 0.000000
										CHANNELS 3 Xrotation Yrotation Zrotation
										JOINT newVegas:RightHandIndex3
										{
											OFFSET -3.835129 0.000000 0.000000
											CHANNELS 3 Xrotation Yrotation Zrotation
											End Site
											{
												OFFSET 0.034599 3.816971 0.371180
											}
										}
									}
								}
								JOINT newVegas:RightHandMiddle1
								{
									OFFSET -18.476105 0.000000 0.000000
									CHANNELS 3 Xrotation Yrotation Zrotation
									JOINT newVegas:RightHandMiddle2
									{
										OFFSET -3.324875 0.000000 0.000000
										CHANNELS 3 Xrotation Yrotation Zrotation
										JOINT newVegas:RightHandMiddle3
										{
											OFFSET -4.596550 0.000000 0.000000
											CHANNELS 3 Xrotation Yrotation Zrotation
											End Site
											{
												OFFSET -0.057701 4.578827 0.399218
											}
										}
									}
								}
								JOINT newVegas:RightHandRing1
								{
									OFFSET -17.732719 0.121887 -4.201567
									CHANNELS 3 Xrotation Yrotation Zrotation
									JOINT newVegas:RightHandRing2
									{
										OFFSET -2.733170 0.000000 0.000000
										CHANNELS 3 Xrotation Yrotation Zrotation
										JOINT newVegas:RightHandRing3
										{
											OFFSET -3.178268 0.000000 0.000000
											CHANNELS 3 Xrotation Yrotation Zrotation
											End Site
											{
												OFFSET -0.119102 3.170624 0.185394
											}
										}
									}
								}
								JOINT newVegas:RightHandPinky1
								{
									OFFSET -15.989624 -0.606689 -7.535461
									CHANNELS 3 Xrotation Yrotation Zrotation
									JOINT newVegas:RightHandPinky2
									{
										OFFSET -2.538986 0.000000 0.000000
										CHANNELS 3 Xrotation Yrotation Zrotation
										JOINT newVegas:RightHandPinky3
										{
											OFFSET -2.593102 0.000000 0.000000
											CHANNELS 3 Xrotation Yrotation Zrotation
											End Site
											{
												OFFSET 0.150902 2.584198 0.152708
											}
										}
									}
								}
							}
							JOINT newVegas:Right_CapeC
							{
								OFFSET -15.715958 -8.608795 -6.935905
								CHANNELS 3 Xrotation Yrotation Zrotation
								JOINT newVegas:Right_CapeC1
								{
									OFFSET 0.000000 -8.688499 0.000000
									CHANNELS 3 Xrotation Yrotation Zrotation
									End Site
									{
										OFFSET 0.000000 8.688499 0.000000
									}
								}
							}
							JOINT newVegas:Right_Sleeve
							{
								OFFSET -0.267448 -0.649994 0.577675
								CHANNELS 3 Xrotation Yrotation Zrotation
								End Site
								{
									OFFSET 0.000000 15.991302 0.000000
								}
							}
						}
						JOINT newVegas:Right_CapeA
						{
							OFFSET -5.115540 -8.608795 -10.395824
							CHANNELS 3 Xrotation Yrotation Zrotation
							JOINT newVegas:Right_CapeA1
							{
								OFFSET 0.000000 -8.688499 0.000000
								CHANNELS 3 Xrotation Yrotation Zrotation
								End Site
								{
									OFFSET 0.000000 8.688499 0.000000
								}
							}
						}
						JOINT newVegas:Right_CapeB
						{
							OFFSET -26.118187 -8.608795 -7.079266
							CHANNELS 3 Xrotation Yrotation Zrotation
							JOINT newVegas:Right_CapeB1
							{
								OFFSET 0.000000 -8.688499 0.000000
								CHANNELS 3 Xrotation Yrotation Zrotation
								End Site
								{
									OFFSET 0.000000 8.688499 0.000000
								}
							}
						}
					}
				}
				JOINT newVegas:Left_Collar
				{
					OFFSET 18.625099 8.655502 8.828100
					CHANNELS 3 Xrotation Yrotation Zrotation
					JOINT newVegas:Left_Collar1
					{
						OFFSET 14.783401 10.540405 -1.259500
						CHANNELS 3 Xrotation Yrotation Zrotation
						End Site
						{
							OFFSET 0.000000 18.199875 0.000000
						}
					}
				}
				JOINT newVegas:Collar_Back
				{
					OFFSET 0.000000 15.630707 -20.132601
					CHANNELS 3 Xrotation Yrotation Zrotation
					End Site
					{
						OFFSET 0.000000 22.523010 0.000000
					}
				}
				JOINT newVegas:Left_Peck
				{
					OFFSET 17.239599 -5.132599 25.482599
					CHANNELS 3 Xrotation Yrotation Zrotation
					End Site
					{
						OFFSET 0.000000 22.523010 0.000000
					}
				}
				JOINT newVegas:Right_Peck
				{
					OFFSET -17.239599 -5.132202 25.482599
					CHANNELS 3 Xrotation Yrotation Zrotation
					End Site
					{
						OFFSET 0.000000 22.523010 0.000000
					}
				}
				JOINT newVegas:Right_Collar
				{
					OFFSET -18.625099 8.655792 8.828100
					CHANNELS 3 Xrotation Yrotation Zrotation
					JOINT newVegas:Right_Collar1
					{
						OFFSET -14.783401 10.539993 -1.259500
						CHANNELS 3 Xrotation Yrotation Zrotation
						End Site
						{
							OFFSET 0.000000 18.199631 0.000000
						}
					}
				}
			}
		}
		JOINT newVegas:Belly
		{
			OFFSET 0.000000 -6.540398 9.014299
			CHANNELS 3 Xrotation Yrotation Zrotation
			End Site
			{
				OFFSET 0.000000 11.566666 0.000000
			}
		}
	}
	JOINT newVegas:ElvisFacialAnim_Joint
	{
		OFFSET 1.000000 -95.330101 -8.825800
		CHANNELS 3 Xrotation Yrotation Zrotation
		End Site
		{
			OFFSET 0.000000 35.315800 0.000000
		}
	}
}
MOTION
Frames: 4
Frame Time: 0.033333
-1.700429 93.710098 2.386003 2.912049 -28.993395 1.189001 -0.000000 -0.000001 -0.000000 -19.095927 17.305056 13.873082 23.891170 12.150521 -1.502337 -6.530336 -3.211203 -8.293830 -0.000000 -0.000000 0.000000 0.000000 0.000000 -0.000000 -12.318830 -0.368872 -11.129360 16.870526 9.896154 0.865026 -8.234269 -1.390123 8.930455 -0.000000 0.000000 -0.000000 0.000001 -0.000001 -0.000001 7.836012 -0.359177 -2.682056 1.099287 -0.880925 2.383790 1.108700 -0.590909 2.446583 -0.922795 3.567097 -1.380657 -0.922775 3.567105 -1.380660 0.000001 -0.000002 0.000000 -0.922653 3.567096 -1.380666 -0.922869 3.567088 -1.380651 -0.000000 -0.000002 0.000000 0.000001 -0.000002 0.000000 -0.057236 -8.759454 -0.061003 -55.255763 0.316566 -41.456028 11.558017 -65.824213 12.981005 -50.166800 12.354794 4.611377 17.551612 -5.699217 -12.932267 10.850465 26.127734 8.644777 -0.000000 -0.000003 -0.000005 13.980929 1.201520 -55.004364 0.370816 1.161712 -65.441880 -0.000000 -0.000000 0.000000 7.504716 1.174461 -63.778496 1.807837 1.475660 -64.567984 -0.000000 -0.000000 -0.000001 8.574322 2.179071 -75.148999 -0.207621 1.009265 -57.855063 0.000000 0.000001 0.000000 10.030089 13.637076 -84.750244 0.877120 0.062299 -64.595531 0.000000 -0.000003 -0.000002 -0.000003 -0.000003 0.000001 -0.000003 -0.000003 0.000001 -0.000004 -0.000003 0.000002 -0.000001 0.000003 -0.000001 -0.000001 0.000003 -0.000002 -0.000001 0.000003 -0.000001 -0.000003 0.000003 -0.000002 4.845958 7.755009 5.560317 -0.944255 -2.169836 61.850894 11.646541 18.896837 -4.095436 -0.786091 6.633025 5.827082 15.788524 -2.734488 -17.205901 -2.198358 -31.113550 7.361190 0.000000 -0.000004 -0.000001 2.371638 -3.659176 8.487455 -2.149902 -2.473426 18.671369 -0.000001 0.000000 -0.000002 -1.937372 -5.687267 13.666749 0.281204 -5.099771 26.988079 0.000001 -0.000000 0.000001 -3.262527 -8.562278 11.769802 4.037168 -4.068426 33.263257 -0.000001 0.000002 -0.000001 -6.474159 -11.347973 23.260730 10.719409 -2.558797 34.823026 0.000001 0.000002 -0.000002 0.000000 -0.000001 -0.000001 0.000000 -0.000000 -0.000001 0.000000 -0.000001 -0.000001 -0.000000 -0.000002 -0.000001 0.000000 -0.000001 0.000000 -0.000000 -0.000002 -0.000001 0.000000 -0.000001 0.000000 0.000000 0.000002 -0.000001 0.000000 0.000002 -0.000001 0.000000 0.000002 -0.000001 0.000000 0.000002 -0.000001 0.000000 0.000002 -0.000001 0.000000 0.000002 -0.000001 0.000000 0.000002 -0.000001 -0.000000 -0.000001 0.000000 -0.000000 -0.000001 -0.000000 
-1.700585 93.708923 2.383923 2.911992 -28.990697 1.188849 -0.000000 -0.000001 0.000000 -19.095677 17.298018 13.894762 23.874537 12.077301 -1.505944 -6.520621 -3.210469 -8.301011 -0.000000 0.000000 -0.000000 0.000001 -0.000000 -0.000000 -12.329366 -0.357071 -11.133758 16.872328 9.829608 0.860463 -8.210979 -1.435482 8.950255 0.000000 -0.000001 -0.000000 -0.000000 -0.000002 0.000000 7.836012 -0.359147 -2.682071 1.099285 -0.880920 2.383787 1.108701 -0.590928 2.446586 -0.953433 3.571922 -1.367420 -0.953429 3.571906 -1.367420 0.000001 0.000002 0.000000 -0.953361 3.571915 -1.367424 -0.953435 3.571929 -1.367422 -0.000001 0.000000 -0.000000 0.000001 0.000002 0.000000 -0.065004 -8.683691 -0.125502 -55.213282 0.303464 -41.503843 11.637572 -65.997762 13.069507 -50.148045 12.470873 4.708815 17.551612 -5.699211 -12.932271 10.850465 26.127729 8.644779 0.000001 0.000000 -0.000004 13.980926 1.201522 -55.004360 0.370817 1.161713 -65.441880 0.000002 0.000001 0.000003 7.504716 1.174463 -63.778496 1.807836 1.475660 -64.567984 0.000001 0.000001 0.000001 8.574321 2.179070 -75.148999 -0.207621 1.009259 -57.855056 -0.000001 -0.000001 -0.000000 10.030083 13.637073 -84.750244 0.877125 0.062300 -64.595531 -0.000000 -0.000003 0.000001 0.000001 0.000001 0.000000 0.000001 0.000001 0.000000 0.000000 0.000001 0.000000 0.000002 0.000002 0.000001 0.000002 0.000001 0.000000 0.000002 0.000002 0.000001 -0.000000 0.000001 0.000000 4.846530 7.767190 5.553401 -1.000337 -2.122993 61.835192 11.629875 18.653889 -4.038792 -0.704144 6.448458 4.729104 16.512254 -2.444913 -16.631403 -2.198361 -31.113547 7.361189 0.000003 -0.000002 -0.000001 2.371637 -3.659179 8.487482 -2.158013 -2.460811 18.671828 0.000000 0.000000 0.000000 -1.948574 -5.685371 13.553901 0.264211 -5.100699 26.999101 -0.000000 -0.000000 0.000002 -3.262543 -8.562288 11.769803 4.037199 -4.068422 33.263271 0.000000 -0.000001 0.000004 -6.474151 -11.347976 23.260721 10.719411 -2.558798 34.823043 -0.000000 0.000003 0.000001 0.000000 0.000000 0.000001 0.000001 -0.000000 0.000001 -0.000000 0.000000 0.000001 -0.000001 -0.000002 -0.000002 -0.000000 -0.000003 -0.000001 -0.000001 -0.000002 -0.000002 -0.000000 -0.000003 -0.000001 0.000000 0.000000 -0.000000 0.000000 0.000000 -0.000000 0.000000 0.000000 -0.000000 0.000000 0.000000 -0.000000 0.000000 0.000000 -0.000000 0.000000 0.000000 -0.000000 0.000000 0.000000 -0.000000 -0.000000 -0.000001 -0.000000 -0.000000 -0.000001 0.000000 
-1.696706 93.711838 2.376426 2.922545 -28.971962 1.192940 0.000000 0.000001 -0.000000 -19.101353 17.297749 13.895533 23.846352 12.061121 -1.505136 -6.501179 -3.225972 -8.297089 -0.000000 -0.000000 -0.000000 -0.000000 0.000000 -0.000000 -12.289209 -0.365425 -11.087239 16.829678 9.880489 0.850259 -8.258717 -1.403866 8.908474 0.000000 0.000002 -0.000000 -0.000000 -0.000002 0.000000 7.836009 -0.359343 -2.681891 1.099287 -0.880931 2.383788 1.108700 -0.590913 2.446583 -0.994883 3.571329 -1.352740 -0.994891 3.571338 -1.352741 -0.000000 0.000000 0.000000 -0.994888 3.571339 -1.352744 -0.994888 3.571323 -1.352741 -0.000001 -0.000000 -0.000000 -0.000000 0.000000 0.000000 -0.073247 -8.612526 -0.191462 -54.981080 0.438318 -41.545479 11.930748 -66.615013 13.423893 -50.294272 12.723405 5.099349 17.551611 -5.699217 -12.932264 10.850464 26.127726 8.644783 0.000001 0.000000 -0.000001 13.980928 1.201520 -55.004364 0.370816 1.161712 -65.441880 -0.000000 -0.000000 0.000000 7.504715 1.174460 -63.778490 1.807835 1.475662 -64.567991 -0.000002 -0.000000 -0.000006 8.574322 2.179069 -75.148999 -0.207621 1.009264 -57.855056 0.000001 -0.000002 -0.000000 10.030085 13.637070 -84.750244 0.877122 0.062299 -64.595531 -0.000001 -0.000003 -0.000001 0.000003 -0.000001 0.000000 0.000003 -0.000001 0.000000 0.000002 -0.000001 0.000001 -0.000000 -0.000003 0.000002 -0.000000 -0.000003 0.000001 -0.000000 -0.000003 0.000002 -0.000000 -0.000003 0.000001 4.847584 7.812058 5.533896 -1.087973 -1.997789 61.813028 11.600831 18.221384 -3.917989 -0.564346 6.373752 3.611531 17.287864 -2.118231 -16.021974 -2.198361 -31.113554 7.361191 0.000000 0.000001 0.000001 2.371630 -3.659175 8.487431 -2.187694 -2.426648 18.672641 -0.000000 0.000001 -0.000001 -1.979564 -5.680085 13.241090 0.213712 -5.099451 27.042196 0.000000 -0.000000 0.000003 -3.262543 -8.562282 11.769789 4.037209 -4.068420 33.263298 0.000000 0.000002 -0.000001 -6.474170 -11.347972 23.260704 10.719414 -2.558794 34.823016 -0.000001 -0.000002 0.000004 0.000001 -0.000001 0.000002 0.000001 -0.000000 0.000002 0.000001 -0.000001 0.000002 -0.000000 0.000001 -0.000001 -0.000000 0.000000 -0.000000 -0.000000 0.000001 -0.000001 -0.000000 -0.000000 -0.000000 0.000000 -0.000001 -0.000000 0.000000 -0.000001 -0.000000 0.000000 -0.000001 -0.000000 0.000000 -0.000001 -0.000000 0.000000 -0.000001 -0.000000 0.000000 -0.000001 -0.000000 0.000000 -0.000001 -0.000000 -0.000000 0.000000 -0.000000 0.000000 0.000001 -0.000000 
-1.694696 93.712349 2.363947 2.936212 -28.931267 1.198083 -0.000000 -0.000001 0.000000 -19.139293 17.290940 13.909046 23.824101 12.041769 -1.504461 -6.460892 -3.255056 -8.292289 0.000000 0.000000 -0.000000 0.000000 0.000000 0.000000 -12.301402 -0.347665 -11.112299 16.825654 9.874350 0.866702 -8.236933 -1.404631 8.921148 0.000000 -0.000001 0.000000 0.000001 -0.000003 -0.000000 7.836020 -0.359632 -2.682309 1.109205 -0.880511 2.383941 1.118485 -0.590495 2.446683 -1.050995 3.565732 -1.336965 -1.050996 3.565734 -1.336965 0.000001 -0.000001 -0.000000 -1.050991 3.565734 -1.336965 -1.050992 3.565734 -1.336964 0.000000 0.000000 -0.000000 0.000001 -0.000001 0.000000 -0.081789 -8.541029 -0.259109 -54.586725 0.702049 -41.549489 12.456286 -67.641146 14.010274 -50.179580 13.058842 5.391511 17.551612 -5.699217 -12.932264 10.850462 26.127736 8.644777 -0.000000 0.000000 -0.000004 13.980929 1.201519 -55.004360 0.370820 1.161713 -65.441880 -0.000001 0.000001 -0.000001 7.504716 1.174459 -63.778490 1.807835 1.475661 -64.567984 0.000001 0.000000 0.000003 8.574321 2.179068 -75.148999 -0.207621 1.009262 -57.855056 -0.000001 -0.000001 0.000001 10.030087 13.637075 -84.750244 0.877124 0.062302 -64.595531 -0.000000 -0.000003 0.000000 -0.000001 -0.000002 -0.000001 -0.000001 -0.000002 -0.000001 -0.000002 -0.000001 -0.000000 0.000002 0.000001 -0.000001 0.000001 0.000000 -0.000002 0.000002 0.000001 -0.000001 0.000002 -0.000001 -0.000002 4.845980 7.849461 5.525453 -0.949492 -1.711267 61.822091 11.590756 18.055347 -3.774330 -0.631203 6.168214 2.709225 18.106700 -1.754979 -15.385710 -2.198363 -31.113547 7.361195 -0.000000 0.000001 0.000001 2.371621 -3.659172 8.487442 -2.232738 -2.374797 18.674005 -0.000000 0.000000 0.000000 -2.026500 -5.667413 12.766471 0.139051 -5.092961 27.132725 0.000001 0.000000 0.000001 -3.262546 -8.562283 11.769793 4.037187 -4.068424 33.263277 0.000001 -0.000001 0.000003 -6.474170 -11.347977 23.260703 10.719403 -2.558789 34.823016 0.000000 0.000002 0.000000 -0.000000 -0.000000 0.000002 -0.000000 -0.000001 0.000002 -0.000000 -0.000000 0.000002 -0.000001 0.000000 -0.000000 -0.000001 0.000000 0.000001 -0.000001 0.000000 -0.000000 -0.000001 -0.000000 0.000001 0.000001 0.000002 -0.000000 0.000001 0.000002 -0.000000 0.000001 0.000002 -0.000000 0.000001 0.000002 -0.000000 0.000001 0.000002 -0.000000 0.000001 0.000002 -0.000000 0.000001 0.000002 -0.000000 0.000001 0.000000 -0.000000 -0.000000 -0.000001 0.000000 
